<svg xmlns="http://www.w3.org/2000/svg" width="200" height="200" viewBox="0 0 200 200" fill="none">
  <rect width="200" height="200" fill="#1e293b" rx="12"/>
  <rect x="30" y="80" width="140" height="60" rx="8" stroke="#6366f1" stroke-width="2" fill="#0d1117"/>
  <rect x="40" y="90" width="10" height="10" rx="2" fill="#6366f1" opacity="0.5"/>
  <rect x="56" y="90" width="10" height="10" rx="2" fill="#6366f1" opacity="0.4"/>
  <rect x="72" y="90" width="10" height="10" rx="2" fill="#6366f1" opacity="0.5"/>
  <rect x="88" y="90" width="10" height="10" rx="2" fill="#6366f1" opacity="0.3"/>
  <rect x="104" y="90" width="10" height="10" rx="2" fill="#6366f1" opacity="0.5"/>
  <rect x="120" y="90" width="10" height="10" rx="2" fill="#6366f1" opacity="0.4"/>
  <rect x="136" y="90" width="14" height="10" rx="2" fill="#6366f1" opacity="0.5"/>
  <rect x="40" y="108" width="26" height="10" rx="2" fill="#6366f1" opacity="0.3"/>
  <rect x="72" y="108" width="10" height="10" rx="2" fill="#6366f1" opacity="0.4"/>
  <rect x="88" y="108" width="46" height="10" rx="2" fill="#6366f1" opacity="0.3"/>
  <rect x="140" y="108" width="10" height="10" rx="2" fill="#6366f1" opacity="0.5"/>
</svg>
